# xmcd CD database file
#
# Track frame offsets:
#	150
#	16217
#	28267
#	39205
#	54142
#	75890
#	84080
#	94663
#	107653
#	130663
#	141109
#	157229
#	170639
#	185894
#	196542
#	210729
#	226140
#	234101
#	257251
#	277696
#	291209
#
# Disc length: 4087 seconds
#
# Revision: 1
# Processed by: cddbd v1.5.2PL0 Copyright (c) Steve Scherf et al.
# Submitted via: CDex 1.51
#
DISCID=fc0ff515
DTITLE=Marta - Kilonski Blues
DYEAR=1900
DGENRE=Blues
TTITLE0=Kieler Blues
TTITLE1=Frühlingslied
TTITLE2=Ballade über eine Zirkusarena
TTITLE3=Wir wandern
TTITLE4=Regen
TTITLE5=Ballade zum Geburtstag
TTITLE6=Wo auch immer
TTITLE7=Manchmal bist Du plötzlich traurig
TTITLE8=Idylle über ein Haus
TTITLE9=Lied
TTITLE10=Blues der unnötigen Wiederkehr
TTITLE11=Vom Hofe
TTITLE12=Das alte Haus
TTITLE13=Dir oder Schneegewitter in Michigan
TTITLE14=Unruhe
TTITLE15=Böses Tief
TTITLE16=Aus Sand gebaut
TTITLE17=Stattdessen
TTITLE18=Lied für Wojtek Bellon
TTITLE19=Konzert
TTITLE20=Meine Insel
EXTD=
EXTT0=
EXTT1=
EXTT2=
EXTT3=
EXTT4=
EXTT5=
EXTT6=
EXTT7=
EXTT8=
EXTT9=
EXTT10=
EXTT11=
EXTT12=
EXTT13=
EXTT14=
EXTT15=
EXTT16=
EXTT17=
EXTT18=
EXTT19=
EXTT20=
PLAYORDER=
